<svg width="40" height="40" fill="none" xmlns="http://www.w3.org/2000/svg"><path fill-rule="evenodd" clip-rule="evenodd" d="M3 0a3 3 0 00-3 3v34a3 3 0 003 3h34a3 3 0 003-3V3a3 3 0 00-3-3H3z" fill="#fff"/><path d="M26 23.5c0-.273-.227-.5-.5-.5h-11c-.273 0-.5.227-.5.5v1c0 .273.227.5.5.5h11c.273 0 .5-.227.5-.5v-1zm0-4c0-.273-.227-.5-.5-.5h-11c-.273 0-.5.227-.5.5v1c0 .273.227.5.5.5h11c.273 0 .5-.227.5-.5v-1zm0-4c0-.273-.227-.5-.5-.5h-11c-.273 0-.5.227-.5.5v1c0 .273.227.5.5.5h11c.273 0 .5-.227.5-.5v-1z" fill="#2B4074"/></svg>